<?xml version="1.0"?>
<svg xmlns="http://www.w3.org/2000/svg" xmlns:xlink="http://www.w3.org/1999/xlink" version="1.1" id="Capa_1" x="0px" y="0px" viewBox="0 0 512 512" style="enable-background:new 0 0 512 512;" xml:space="preserve" width="512px" height="512px" class=""><g><g>
	<polygon style="fill:#C42532" points="403.373,280.285 438.452,260.013 313.842,55.974 253.717,82.681 253.717,62.547    262.504,57.427 262.504,30.512 209.712,0 209.643,0 94.582,66.491 94.582,93.405 103.369,98.456 103.369,164.117 73.548,179.477    103.369,199.472 103.369,350.997 84.203,342.417 84.203,379.226 315.641,512 430.703,445.509 430.703,408.77 430.703,408.701    403.373,391.265  " data-original="#5496CE" class="" data-old_color="#5496CE"/>
	<polygon style="fill:#FFFFFF" points="262.504,30.512 262.504,57.427 253.717,62.547 147.373,123.918 147.373,96.934  " data-original="#445C71" class="active-path" data-old_color="#445C71"/>
	<polygon style="fill:#C42532" points="262.504,30.512 147.373,96.934 94.582,66.491 209.643,0 209.712,0  " data-original="#336A93" class="" data-old_color="#336A93"/>
	<polygon style="fill:#FFFFFF" points="403.373,280.285 403.373,391.265 288.311,457.756 288.311,306.231 323.39,326.504  " data-original="#445C71" class="active-path" data-old_color="#445C71"/>
	<g>
		<polygon style="fill:#C42532" points="438.452,260.013 403.373,280.285 323.39,326.504 198.781,122.396 313.842,55.974   " data-original="#336A93" class="" data-old_color="#336A93"/>
		<polygon style="fill:#C42532" points="313.842,55.974 198.781,122.396 138.586,149.103 138.586,118.798 147.373,123.918     253.717,62.547 253.717,82.681   " data-original="#336A93" class="" data-old_color="#336A93"/>
		<polygon style="fill:#C42532" points="430.703,408.701 430.703,408.77 315.641,475.191 288.311,457.756 403.373,391.265   " data-original="#336A93" class="" data-old_color="#336A93"/>
	</g>
	<polygon style="fill:#FFFFFF" points="430.703,408.77 430.703,445.509 315.641,512 315.641,475.191  " data-original="#445C71" class="active-path" data-old_color="#445C71"/>
	<path style="fill:#FFFFFF" d="M193.759,276.893c1.788-5.578,6.18-9.935,11.772-11.679c5.592-1.744,11.682-0.656,16.324,2.916   c11.572,7.817,20.887,18.538,27.013,31.088c9.643,17.415,13.936,47.099-3.936,57.278c-9.068,5.165-51.172,27.393-51.172,27.393   s-41.892-70.724-50.96-86.359c-17.872-30.817-13.791-55.666-3.936-61.823c8.196-5.433,18.859-5.392,27.013,0.104   C178.756,243.246,188.912,259.929,193.759,276.893z" data-original="#FE9189" class="" data-old_color="#FE9189"/>
</g></g> </svg>
