<?xml version="1.0"?>
<svg xmlns="http://www.w3.org/2000/svg" xmlns:xlink="http://www.w3.org/1999/xlink" version="1.1" id="Capa_1" x="0px" y="0px" viewBox="0 0 58 58" style="enable-background:new 0 0 58 58;" xml:space="preserve" width="512px" height="512px" class=""><g><g>
	<polygon style="fill:#EFEFEF" points="0,12.5 0,12.604 0,53.371 0,53.5 0.129,53.5 57.541,53.5 57.871,53.5 58,53.5 58,53.371    58,12.604 58,12.5  " data-original="#D1D0BF" class="" data-old_color="#D1D0BF"/>
	<path style="fill:#FFFFFF" d="M0,12.501l27.139,27.267c1.049,0.976,2.674,0.976,3.723,0L58,12.5L0,12.501z" data-original="#B2AF94" class="" data-old_color="#B2AF94"/>
	<path style="fill:#FFFFFF" d="M53,45.5h-8c-0.552,0-1-0.447-1-1s0.448-1,1-1h8c0.552,0,1,0.447,1,1S53.552,45.5,53,45.5z" data-original="#A3A081" class="" data-old_color="#A3A081"/>
	<path style="fill:#FFFFFF" d="M53,41.5h-8c-0.552,0-1-0.447-1-1s0.448-1,1-1h8c0.552,0,1,0.447,1,1S53.552,41.5,53,41.5z" data-original="#A3A081" class="" data-old_color="#A3A081"/>
	<path style="fill:#FFFFFF" d="M53,49.5H40c-0.552,0-1-0.447-1-1s0.448-1,1-1h13c0.552,0,1,0.447,1,1S53.552,49.5,53,49.5z" data-original="#A3A081" class="" data-old_color="#A3A081"/>
	<rect x="2" y="8.5" style="fill:#EFEFEF" width="54" height="4" data-original="#C4C2A5" class="active-path" data-old_color="#C4C2A5"/>
	<rect x="4" y="4.5" style="fill:#EFEFEF" width="50" height="4" data-original="#E0DCC3" class="" data-old_color="#E0DCC3"/>
</g></g> </svg>
